<svg xmlns="http://www.w3.org/2000/svg" width="64" height="64" viewBox="0 0 64 64">
  <g id="Group_26" data-name="Group 26" transform="translate(-1430 -749)">
    <path id="Icon_awesome-facebook" data-name="Icon awesome-facebook" d="M35.438,18A17.438,17.438,0,1,0,15.275,35.227V23.041h-4.43V18h4.43V14.158c0-4.37,2.6-6.784,6.586-6.784a26.836,26.836,0,0,1,3.9.34V12h-2.2a2.52,2.52,0,0,0-2.841,2.723V18h4.836l-.773,5.041H20.725V35.227A17.444,17.444,0,0,0,35.438,18Z" transform="translate(1443.925 763.105)" fill="#848da7"/>
    <g id="Ellipse_1" data-name="Ellipse 1" transform="translate(1430 749)" fill="none" stroke="#848da7" stroke-width="1">
      <circle cx="32" cy="32" r="32" stroke="none"/>
      <circle cx="32" cy="32" r="31.5" fill="none"/>
    </g>
  </g>
</svg>
